<?xml version="1.0" encoding="UTF-8"?>
<svg xmlns="http://www.w3.org/2000/svg" xmlns:xlink="http://www.w3.org/1999/xlink" width="78px" height="78px" viewBox="0 0 78 78" version="1.1">
<g id="surface1">
<path style=" stroke:none;fill-rule:nonzero;fill:rgb(100%,100%,100%);fill-opacity:1;" d="M 35.75 22.75 L 42.25 22.75 L 42.25 29.25 L 35.75 29.25 Z M 35.75 35.75 L 42.25 35.75 L 42.25 55.25 L 35.75 55.25 Z M 39 6.5 C 21.058594 6.5 6.5 21.058594 6.5 39 C 6.5 56.941406 21.058594 71.5 39 71.5 C 56.941406 71.5 71.5 56.941406 71.5 39 C 71.5 21.058594 56.941406 6.5 39 6.5 Z M 39 65 C 24.667969 65 13 53.332031 13 39 C 13 24.667969 24.667969 13 39 13 C 53.332031 13 65 24.667969 65 39 C 65 53.332031 53.332031 65 39 65 Z M 39 65 "/>
</g>
</svg>
