<?xml version="1.0" encoding="UTF-8"?>
<svg xmlns="http://www.w3.org/2000/svg" xmlns:xlink="http://www.w3.org/1999/xlink" width="78px" height="78px" viewBox="0 0 78 78" version="1.1">
<g id="surface1">
<path style=" stroke:none;fill-rule:nonzero;fill:rgb(100%,100%,100%);fill-opacity:1;" d="M 36.644531 68.085938 C 29.980469 67.546875 24.375 64.808594 19.824219 59.882812 C 15.273438 54.953125 13 49.101562 13 42.332031 C 13 38.160156 13.960938 34.234375 15.882812 30.550781 C 17.808594 26.867188 20.503906 23.859375 23.96875 21.53125 L 27.460938 25.023438 C 24.429688 26.8125 22.074219 29.261719 20.394531 32.378906 C 18.714844 35.492188 17.875 38.808594 17.875 42.332031 C 17.875 47.746094 19.664062 52.433594 23.238281 56.386719 C 26.8125 60.339844 31.28125 62.617188 36.644531 63.210938 Z M 41.519531 68.085938 L 41.519531 63.210938 C 46.933594 62.5625 51.402344 60.273438 54.925781 56.347656 C 58.445312 52.417969 60.207031 47.746094 60.207031 42.332031 C 60.207031 36.425781 58.160156 31.429688 54.070312 27.339844 C 49.980469 23.25 44.984375 21.207031 39.082031 21.207031 L 37.457031 21.207031 L 42.332031 26.082031 L 38.835938 29.574219 L 28.03125 18.769531 L 38.835938 7.960938 L 42.332031 11.457031 L 37.457031 16.332031 L 39.082031 16.332031 C 46.339844 16.332031 52.488281 18.863281 57.523438 23.929688 C 62.5625 28.992188 65.082031 35.128906 65.082031 42.332031 C 65.082031 49.101562 62.820312 54.953125 58.296875 59.882812 C 53.773438 64.808594 48.179688 67.546875 41.519531 68.085938 Z M 41.519531 68.085938 "/>
</g>
</svg>
